fd_9_states
version=1
nRows=31
nColumns=17
inDegrees=yes

# SIMM Motion File Header:
name fd_9_states
datacolumns 17
datarows 31
otherdata 1
range 0.642446 0.663850
endheader
time	/jointset/r_shoulder/r_shoulder_elev/value	/jointset/r_shoulder/r_shoulder_elev/speed	/jointset/r_elbow/r_elbow_flex/value	/jointset/r_elbow/r_elbow_flex/speed	/forceset/TRIlong/activation	/forceset/TRIlong/fiber_length	/forceset/TRIlat/activation	/forceset/TRIlat/fiber_length	/forceset/TRImed/activation	/forceset/TRImed/fiber_length	/forceset/BIClong/activation	/forceset/BIClong/fiber_length	/forceset/BICshort/activation	/forceset/BICshort/fiber_length	/forceset/BRA/activation	/forceset/BRA/fiber_length
      0.642446	    -15.819881	     71.645971	    228.717986	    335.452567	      0.084191	      0.160430	      0.608877	      0.103314	      0.602101	      0.098397	      0.228636	      0.092950	      0.073507	      0.091301	      0.055081	      0.046049
      0.643141	    -15.769715	     72.778135	    228.950112	    332.851917	      0.083498	      0.160393	      0.606420	      0.103255	      0.599657	      0.098338	      0.227323	      0.093141	      0.072943	      0.091483	      0.054728	      0.046110
      0.643836	    -15.718767	     73.901268	    229.180443	    330.280005	      0.082812	      0.160358	      0.604028	      0.103197	      0.597278	      0.098280	      0.226032	      0.093329	      0.072386	      0.091675	      0.054379	      0.046200
      0.644530	    -15.667043	     75.011234	    229.409009	    327.774362	      0.082136	      0.160325	      0.601700	      0.103139	      0.594962	      0.098222	      0.224763	      0.093516	      0.071836	      0.091857	      0.054033	      0.046261
      0.645225	    -15.614551	     76.113221	    229.635846	    325.297984	      0.081467	      0.160293	      0.599433	      0.103081	      0.592707	      0.098164	      0.223515	      0.093701	      0.071292	      0.092042	      0.053692	      0.046349
      0.645920	    -15.561297	     77.203736	    229.860983	    322.883541	      0.080807	      0.160262	      0.597227	      0.103023	      0.590510	      0.098106	      0.222288	      0.093884	      0.070754	      0.092222	      0.053354	      0.046412
      0.646614	    -15.507289	     78.286730	    230.084454	    320.499500	      0.080155	      0.160233	      0.595078	      0.102966	      0.588371	      0.098048	      0.221081	      0.094065	      0.070223	      0.092403	      0.053020	      0.046498
      0.647309	    -15.452531	     79.359233	    230.306288	    318.174433	      0.079511	      0.160205	      0.592985	      0.102908	      0.586288	      0.097991	      0.219894	      0.094244	      0.069698	      0.092581	      0.052689	      0.046561
      0.648004	    -15.397032	     80.424453	    230.526520	    315.880532	      0.078875	      0.160178	      0.590947	      0.102851	      0.584258	      0.097934	      0.218726	      0.094422	      0.069180	      0.092758	      0.052362	      0.046645
      0.648698	    -15.340795	     81.479690	    230.745176	    313.643559	      0.078247	      0.160152	      0.588961	      0.102794	      0.582280	      0.097877	      0.217578	      0.094598	      0.068667	      0.092933	      0.052039	      0.046709
      0.649393	    -15.283828	     82.527735	    230.962291	    311.438343	      0.077626	      0.160127	      0.587027	      0.102738	      0.580354	      0.097820	      0.216448	      0.094772	      0.068160	      0.093106	      0.051719	      0.046792
      0.650088	    -15.226137	     83.566026	    231.177891	    309.288518	      0.077013	      0.160103	      0.585121	      0.102681	      0.578452	      0.097763	      0.215334	      0.094944	      0.067660	      0.093278	      0.051406	      0.046855
      0.650782	    -15.167726	     84.597064	    231.392011	    307.170922	      0.076407	      0.160079	      0.582779	      0.102625	      0.576060	      0.097707	      0.214191	      0.095115	      0.067165	      0.093448	      0.051174	      0.046936
      0.651477	    -15.108603	     85.618425	    231.604676	    305.105815	      0.075809	      0.160057	      0.580422	      0.102569	      0.573646	      0.097651	      0.213060	      0.095284	      0.066675	      0.093617	      0.050956	      0.047000
      0.652172	    -15.048773	     86.632275	    231.815920	    303.072929	      0.075217	      0.160035	      0.578127	      0.102513	      0.571295	      0.097596	      0.211946	      0.095452	      0.066192	      0.093784	      0.050741	      0.047079
      0.652892	    -14.985997	     87.673431	    232.033477	    301.017522	      0.074612	      0.160013	      0.575811	      0.102456	      0.568921	      0.097538	      0.210811	      0.095625	      0.065696	      0.093956	      0.050520	      0.047147
      0.653612	    -14.922474	     88.706516	    232.249569	    298.995747	      0.074014	      0.159992	      0.573556	      0.102399	      0.566611	      0.097481	      0.209694	      0.095795	      0.065207	      0.094127	      0.050302	      0.047230
      0.654333	    -14.858210	     89.729036	    232.464222	    297.028583	      0.073423	      0.159971	      0.571361	      0.102342	      0.564361	      0.097424	      0.208596	      0.095964	      0.064723	      0.094296	      0.050086	      0.047294
      0.655053	    -14.793213	     90.743715	    232.677471	    295.091978	      0.072840	      0.159952	      0.569224	      0.102285	      0.562171	      0.097368	      0.207516	      0.096132	      0.064245	      0.094463	      0.049872	      0.047376
      0.655773	    -14.727488	     91.747932	    232.889342	    293.207638	      0.072264	      0.159933	      0.567143	      0.102229	      0.560039	      0.097311	      0.206454	      0.096297	      0.063773	      0.094629	      0.049661	      0.047441
      0.656493	    -14.661044	     92.744107	    233.099868	    291.354390	      0.071695	      0.159914	      0.565117	      0.102173	      0.557962	      0.097255	      0.205409	      0.096462	      0.063306	      0.094794	      0.049451	      0.047522
      0.657214	    -14.593885	     93.729813	    233.309076	    289.551834	      0.071133	      0.159897	      0.563144	      0.102117	      0.555939	      0.097199	      0.204381	      0.096625	      0.062845	      0.094957	      0.049245	      0.047587
      0.657934	    -14.526020	     94.707258	    233.516999	    287.780861	      0.070577	      0.159880	      0.561223	      0.102061	      0.553969	      0.097143	      0.203370	      0.096786	      0.062389	      0.095119	      0.049040	      0.047666
      0.658654	    -14.457454	     95.674202	    233.723663	    286.059179	      0.070029	      0.159863	      0.559351	      0.102005	      0.552049	      0.097087	      0.202376	      0.096946	      0.061939	      0.095279	      0.048838	      0.047732
      0.659375	    -14.388194	     96.632640	    233.929099	    284.369701	      0.069487	      0.159848	      0.557528	      0.101950	      0.550179	      0.097032	      0.201397	      0.097104	      0.061493	      0.095438	      0.048637	      0.047810
      0.660021	    -14.325444	     97.483965	    234.112472	    282.893898	      0.069007	      0.159834	      0.555908	      0.101900	      0.548522	      0.096982	      0.200530	      0.097245	      0.061098	      0.095580	      0.048458	      0.047869
      0.660416	    -14.286845	     98.000452	    234.224010	    282.005689	      0.068716	      0.159826	      0.554314	      0.101870	      0.546993	      0.096952	      0.199946	      0.097331	      0.060859	      0.095666	      0.048305	      0.047910
      0.661011	    -14.228268	     98.773246	    234.391517	    280.690943	      0.068280	      0.159815	      0.551792	      0.101825	      0.544589	      0.096907	      0.199060	      0.097459	      0.060501	      0.095795	      0.048065	      0.047969
      0.662458	    -14.084081	    100.620338	    234.795206	    277.615766	      0.067242	      0.159788	      0.545897	      0.101716	      0.538969	      0.096798	      0.196955	      0.097769	      0.059646	      0.096105	      0.047491	      0.048110
      0.663089	    -14.020315	    101.414047	    234.970036	    276.318281	      0.066796	      0.159777	      0.543422	      0.101669	      0.536609	      0.096750	      0.196058	      0.097903	      0.059279	      0.096239	      0.047244	      0.048179
      0.663850	    -13.942763	    102.359517	    235.179776	    274.800281	      0.066265	      0.159764	      0.540515	      0.101612	      0.533835	      0.096694	      0.194993	      0.098062	      0.058842	      0.096400	      0.046950	      0.048249
